<svg id="Capa_1" data-name="Capa 1" xmlns="http://www.w3.org/2000/svg" viewBox="0 0 283.46 283.46"><defs><style>.cls-1{fill:#1c1c1c;}</style></defs><path class="cls-1" d="M245.18,142.21c-1.72-2.72-4.55-7-10-8.55a20.45,20.45,0,0,0-15.54,1.57,13.31,13.31,0,0,0-8.18-7.6c-6.26-2-11.65-.66-16.65,2.16a13.13,13.13,0,0,0-7.38-5.85c-6.08-1.92-11.32-.67-16.17,2l-.46.26c-.55.31-1.62,1-1.62,1L138,147l-8.22-2.51a17.85,17.85,0,0,1-3.23-1.33L99.59,129.05a16.48,16.48,0,0,0-7.68-1.89h-18a15.29,15.29,0,0,0-7.13,1.76L38.1,144a4.3,4.3,0,0,0-2.22,5,4.21,4.21,0,0,0,6,2.54L64.4,139.63a35.57,35.57,0,0,1,16.54-4.08h4.14a35.63,35.63,0,0,1,16.52,4.07l22.61,11.85,1.19.5,13.93,4.25.35.15,12.46,3.55,11.91,2.75c2.82,1,6.74,1.87,7.37,5.64a11.72,11.72,0,0,1-1.92,7.89,9.07,9.07,0,0,1-3.24,2,22.21,22.21,0,0,1-4,1.39,62.12,62.12,0,0,1-8.07.45c-3.37-.25-11.62-1-15.92-1.36a25.91,25.91,0,0,1-5.29-1l-16-4.86a4.35,4.35,0,0,0-5.39,2.51,4.19,4.19,0,0,0,2.72,5.45l18.77,5.72a25.83,25.83,0,0,0,4.29.74s14.21,1.15,20,1.12a36.84,36.84,0,0,0,12.11-2.55A17.88,17.88,0,0,0,176,181a12.28,12.28,0,0,0,1.89-3.53l2.54-7.38-.08,0,42.26-26.78c2.31-1.15,7.39-3.3,10.49-1.79a11.9,11.9,0,0,1,5.29,5.47,8.17,8.17,0,0,1,.13,8.07,13.09,13.09,0,0,1-3.86,4.93l-81.14,55.92a20,20,0,0,1-10.24,3.51l-3.2.19a20.1,20.1,0,0,1-10.49-2.27L92.16,197.61a12.28,12.28,0,0,0-2.26-.91,12.48,12.48,0,0,0-3.54-.52h-9.8a12.21,12.21,0,0,0-2.55.27H74a12.26,12.26,0,0,0-2.51.81L38.6,211.83a4.2,4.2,0,1,0,3.4,7.68l30-13.32a18.68,18.68,0,0,1,7.61-1.62h3.1a18.71,18.71,0,0,1,8.73,2.16l39.27,20.63a8,8,0,0,0,2.07.74,7.7,7.7,0,0,0,2,.15l13.3-.77a12.26,12.26,0,0,0,2.76-.47,12.69,12.69,0,0,0,3.74-1.76l80.64-55.58h0l4.13-2.85s5.23-4.59,7-8.65A17.81,17.81,0,0,0,245.18,142.21Zm-86.33,10.31s-3.08-.67-4.25-.94c-1.36-.32-5.28-1.82-5.28-1.82l25.33-16c2.06-1.14,7.06-3.49,9.53-1.14a10.35,10.35,0,0,1,2.07,2.58Zm51.84-11.67-32.45,20.63a1.58,1.58,0,0,1-2.11-.36c-.62-.81-1.22-1.65-2.23-2.84a9.56,9.56,0,0,0-2.87-2l-.71-.33-.82-.29,18.72-11.86h0l9.45-6s7.34-4.64,10.48-1.62C210.44,138.45,210.78,140,210.69,140.85Z"/><path class="cls-1" d="M192.38,83.17a10.35,10.35,0,0,0-7-3.27h-1.67a1.61,1.61,0,0,1-1.59-1.62V61.65a4.31,4.31,0,0,0-4.26-4.35h0a4.2,4.2,0,0,0-3.07,1.33l-3.65,3.9a2.34,2.34,0,0,1-3.42,0l-3.57-3.82a4.24,4.24,0,0,0-7.41,2.94V78.29a1.6,1.6,0,0,1-1.58,1.61H130.81a1.67,1.67,0,0,1-1.55-1.06c-3.82-9.3-12-15.74-21.49-15.74a21.07,21.07,0,0,0-9.91,2.52c-4.17-3.75-21.6-17.57-40.68-5.69,0,0-13.87,9-4.66,25.95s25.59,17.34,25.59,17.34a69.68,69.68,0,0,0,8.26-.48c3.87,9.16,12,15.49,21.4,15.49,9.82,0,18.23-6.89,21.87-16.71a1.67,1.67,0,0,1,1.56-1.11h53.13a15.49,15.49,0,0,0,7-1.9,8,8,0,0,0,4-7v-1A10.24,10.24,0,0,0,192.38,83.17ZM59,84.8C45,64,74.72,53.63,92.67,69.34a29.34,29.34,0,0,0-8.74,21.32,31.45,31.45,0,0,0,.58,6C76.77,97.68,66.63,96.19,59,84.8Zm128.1,8.68a20.23,20.23,0,0,1-5.24.71H126.91a1.69,1.69,0,0,0-1.64,1.38c-1.91,9.14-9,15.93-17.5,15.93-6.43,0-12.06-3.91-15.25-9.77a32,32,0,0,0,8.53-3,8.36,8.36,0,0,0,2.36.34,8.72,8.72,0,1,0-8.14-5.7,35.63,35.63,0,0,1-5,2,23.8,23.8,0,0,1-.47-4.68c0-11.5,8.07-20.83,18-20.83,8.19,0,15.09,6.32,17.28,15a1.7,1.7,0,0,0,1.63,1.3l30,0h4.5a1.6,1.6,0,0,0,1.59-1.61V68.62a.84.84,0,0,1,1.43-.59l3.5,3.55a2.35,2.35,0,0,0,3.34,0l3.5-3.55a.84.84,0,0,1,1.44.59V84.5a1.61,1.61,0,0,0,1.59,1.62h4.49s3.28-.18,4.57.46c.75.37,2.13.59,2.24,3.19C189,91.35,188.22,93,187.08,93.48Z"/></svg>