<svg id="Capa_1" data-name="Capa 1" xmlns="http://www.w3.org/2000/svg" viewBox="0 0 283.46 283.46"><defs><style>.cls-1{fill:#1c1c1c;}</style></defs><path class="cls-1" d="M231.27,45H52.19a22.09,22.09,0,0,0-22.1,22.1V189.74a22.09,22.09,0,0,0,22.1,22.1H123v16.77H76.58a5,5,0,1,0,0,9.9H207.65a4.95,4.95,0,1,0,0-9.9H161.26V211.84h70a22.09,22.09,0,0,0,22.1-22.1V67.05A22.09,22.09,0,0,0,231.27,45ZM151.35,228.61H132.87V211.84h18.48Zm92.88-37.34A11.43,11.43,0,0,1,232.8,202.7H51.43A11.43,11.43,0,0,1,40,191.27v-125A11.43,11.43,0,0,1,51.43,54.86H232.8a11.43,11.43,0,0,1,11.43,11.43Z"/><path class="cls-1" d="M100.58,94.29v16.13a3.12,3.12,0,0,0,3.11,3.12h28.45a3.12,3.12,0,0,0,3.11-3.12V94.29a3.11,3.11,0,0,0-3.11-3.11H103.69A3.11,3.11,0,0,0,100.58,94.29Zm19.74,6.86a5.65,5.65,0,0,1,4.15-5.67,5.33,5.33,0,0,1,6.24,5.48v2.79a5.33,5.33,0,0,1-6.24,5.49,5.65,5.65,0,0,1-4.15-5.67Zm-14.86.18c0-3.06,2.1-5.82,4.91-6a5.36,5.36,0,0,1,5.38,5.58v2.79a5.36,5.36,0,0,1-5.38,5.59c-2.81-.14-4.91-2.9-4.91-6Z"/><path class="cls-1" d="M181.89,104.49l-16-10.43a36.61,36.61,0,0,0,.35-4.27v-12a5.47,5.47,0,0,0-5.46-5.46h-9.29A5.46,5.46,0,0,0,146,77.84v3.27L122.82,66a7.48,7.48,0,0,0-8.15,0L55.15,104.47a1.8,1.8,0,0,0,1,3.32h6.44v73.4a2.09,2.09,0,0,0,2.1,2.09h41.7a3.86,3.86,0,0,0,3.86-3.8l.36-23.56a3.26,3.26,0,0,1,3.26-3.26l9.37,0a3.26,3.26,0,0,1,3.27,3.26l-.36,23.45a3.86,3.86,0,0,0,3.86,3.92l42.32,0a2.1,2.1,0,0,0,2.1-2.09v-73.4h6.5A1.8,1.8,0,0,0,181.89,104.49ZM151.1,80.43a2.32,2.32,0,0,1,2.31-2.31h5.45a2.31,2.31,0,0,1,2.3,2.31V91L151.1,84.42Zm16.12,93.18a2.09,2.09,0,0,1-2.05,2.09l-29.21.6a3.37,3.37,0,0,1-3.36-3.42l.31-23.35a2.85,2.85,0,0,0-2.85-2.84H107.69a2.84,2.84,0,0,0-2.84,2.85L104.53,173a3.36,3.36,0,0,1-3.36,3.31l-29.35-.6a2.1,2.1,0,0,1-2.06-2.09l-.05-70.77,45.45-29.41a6.54,6.54,0,0,1,7.11,0l45.09,29.4Z"/><path class="cls-1" d="M213.78,169.77a4.12,4.12,0,0,0-.79-.87l5.95-3.9a1,1,0,0,0-.24-1.74l-16.53-5.11a1,1,0,0,0-1.25.82L199,176.16a1,1,0,0,0,1.5.92l6-3.9a3.84,3.84,0,0,0,.48,1.08l5,7.67a4.1,4.1,0,1,0,6.86-4.49Z"/></svg>