<?xml version="1.0" encoding="utf-8"?>
<!-- Generator: Adobe Illustrator 25.1.0, SVG Export Plug-In . SVG Version: 6.00 Build 0)  -->
<svg version="1.1" id="Capa_1" xmlns="http://www.w3.org/2000/svg" xmlns:xlink="http://www.w3.org/1999/xlink" x="0px" y="0px"
	 viewBox="0 0 658 205.3" style="enable-background:new 0 0 658 205.3;" xml:space="preserve">
<style type="text/css">
	.st0{fill:#EAC350;}
</style>
<path class="st0" d="M102.7,0C46,0,0,46,0,102.7s46,102.7,102.7,102.7s102.7-46,102.7-102.7c0,0,0,0,0,0l0,0
	C205.2,46,159.3,0.1,102.7,0z M102.7,192.8c-49.8,0-90.1-40.3-90.1-90.1s40.3-90.1,90.1-90.1s90.1,40.3,90.1,90.1
	C192.8,152.4,152.4,192.7,102.7,192.8C102.7,192.8,102.7,192.8,102.7,192.8z"/>
<path class="st0" d="M184.7,101.1c-5.7,3.4-11.8,6.1-18.2,8V75.2c0-2.8-2.3-5.1-5.1-5.1l0,0H139c-2.8,0-5.1,2.3-5.1,5.1l0,0l0,0
	v37.9c-5.2-0.1-10.5-0.5-15.6-1.2c0.5-0.8,0.7-1.6,0.7-2.5V41.8c0-2.7-2.2-4.9-4.9-4.9H91.3c-2.7,0-4.9,2.2-4.9,4.9v0l0,0v64.1
	c-5.2-0.9-10.2-1.6-14.9-2.1V67.5c0-2.2-1.8-4-4-4H42.8c-2.2,0-4,1.8-4,4v36c-6.1,0.6-12.2,1.7-18.2,3.4c2.2,45.3,40.8,80.2,86.1,78
	c43.8-2.2,78.1-38.3,78.1-82.1C184.8,102.1,184.8,101.6,184.7,101.1z"/>
<path class="st0" d="M270.3,152.1c0-0.6,0.4-1,1-1h3.1c0.6,0,1,0.4,1,1v15.6c1.6-0.7,3.4-1.1,5.1-1.1c5.9,0,10.5,5,10.5,11.2
	s-4.3,11.2-10,11.2c-2.6,0-5-1.1-6.8-3l-0.4,1.6c-0.2,0.5-0.5,0.9-1,0.9h-1.6c-0.6,0-1-0.4-1-1L270.3,152.1z M280.4,184.4
	c3.4,0,5.7-3.1,5.7-6.6s-2.5-6.6-6.1-6.6c-1.6,0-3.2,0.4-4.6,1.2v8.8C276.3,183.1,278.3,184.3,280.4,184.4z"/>
<path class="st0" d="M306.6,155.3c-0.1-1.7,1.3-3.1,3-3.1c0,0,0,0,0,0l0,0c1.7,0,3.1,1.4,3.1,3.1c0,1.7-1.4,3.1-3.1,3.1
	C307.9,158.4,306.6,157,306.6,155.3L306.6,155.3z M307.1,168.1c0-0.6,0.4-1,1-1h3c0.6,0,1,0.4,1,1v19.3c0,0.6-0.4,1-1,1h-3
	c-0.6,0-1-0.4-1-1V168.1z"/>
<path class="st0" d="M339,166.6c5.3-0.1,9.7,4.1,9.8,9.4v0.5c0,0.5,0,1-0.1,1.4c0,0.5-0.5,0.9-1,0.9h-14.5c0.2,3.2,2.9,5.8,6.1,5.8
	c1.7-0.1,3.4-0.6,4.8-1.6c0.6-0.4,1-0.6,1.4-0.1l1.5,2c0.4,0.3,0.4,0.8,0.2,1.2c-0.1,0.1-0.2,0.2-0.3,0.2c-2.2,1.8-5,2.7-7.9,2.7
	c-6.5,0-10.7-5.1-10.7-11.2S332.6,166.6,339,166.6z M343.8,175.4c-0.2-2.6-2.3-4.7-4.9-4.8c-2.8,0-5.1,2-5.4,4.8H343.8z"/>
<path class="st0" d="M364.6,168.1c0-0.6,0.4-1,1-1h1.5c0.4,0,0.7,0.3,0.9,0.6l0.6,1.8c2-1.9,4.7-3,7.5-3c6.5,0,8.9,4.6,8.9,10.1
	v10.7c0,0.5-0.5,1-1,1h-3c-0.6,0-1-0.4-1-1v-11c0-3.4-1.6-5.3-4.4-5.3c-2.4,0-4.6,1.2-5.9,3.2v13c0,0.7-0.3,1-1.2,1h-2.8
	c-0.5,0-1-0.5-1-1L364.6,168.1z"/>
<path class="st0" d="M411.6,166.6c5.3-0.1,9.7,4.1,9.8,9.4v0.5c0,0.5,0,1-0.1,1.4c0,0.5-0.5,0.9-1,0.9h-14.5
	c0.2,3.2,2.9,5.7,6.1,5.7c1.7-0.1,3.3-0.6,4.8-1.6c0.6-0.4,1-0.6,1.4-0.1l1.5,2c0.4,0.3,0.4,0.8,0.2,1.2c-0.1,0.1-0.2,0.2-0.3,0.2
	c-2.2,1.8-5,2.7-7.9,2.7c-6.5,0-10.7-5.1-10.7-11.2S405.1,166.6,411.6,166.6z M416.4,175.4c-0.2-2.6-2.3-4.7-4.9-4.8
	c-2.8,0-5.1,2-5.4,4.8H416.4z"/>
<path class="st0" d="M435.9,185.7l1.1-2.1c0.3-0.4,0.8-0.6,1.3-0.3c0,0,0,0,0,0h0.1c1.5,0.9,3.2,1.3,5,1.4c1.6,0,2.6-0.6,2.6-1.8
	c0-1.4-1.2-2.1-4.1-3.5c-3.3-1.4-6.1-3.5-6.1-7c0-2.7,2.2-5.9,7.3-5.9c2.2,0,4.4,0.5,6.3,1.7c0.5,0.3,0.7,1,0.4,1.6l-1,1.8
	c-0.3,0.5-0.9,0.6-1.4,0.4c-1.4-0.6-2.9-1-4.4-1.1c-1.8,0-2.4,0.8-2.4,1.6c0,1.4,1.3,2,3.4,2.9c3.9,1.7,7.1,3.4,7.1,7.4
	c0,3.3-3.1,6.2-7.9,6.2c-2.5,0.1-5-0.7-7-2.2C435.9,186.5,435.8,186,435.9,185.7z"/>
<path class="st0" d="M489.4,168.1c0-0.5,0.5-1,1-1h1.5c0.4,0,0.8,0.3,0.9,0.7l0.6,1.8c1.5-2,3.8-3.1,6.2-3.1c2,0,4.5,0.5,3.9,2
	l-1.3,2.6c-0.2,0.5-0.7,0.7-1.2,0.5H501c-0.6-0.2-1.2-0.4-1.8-0.4c-1.9,0-3.8,1-4.8,2.6v13.6c0,0.9-0.6,1-1.4,1h-2.6
	c-0.5,0-1-0.5-1-1L489.4,168.1z"/>
<path class="st0" d="M525.1,174.9c1.4,0,2.8,0.2,4.2,0.6c0-3.4-0.6-4.7-3.3-4.7c-2,0.1-4.1,0.4-6,1c-0.6,0.2-1-0.3-1.2-0.9l-0.4-2
	c-0.1-0.5,0.2-1.1,0.7-1.2c0,0,0,0,0,0l0,0c2.4-0.8,4.9-1.2,7.4-1.2c6.8,0,7.5,4.2,7.5,9.5v11.4c0,0.6-0.4,1-1,1h-1.5
	c-0.5,0-0.7-0.2-0.9-0.8l-0.5-1.4c-1.7,1.8-4.1,2.7-6.6,2.7c-4,0-6.9-2.7-6.9-7.1C516.5,177.9,519.6,174.9,525.1,174.9z
	 M524.4,185.2c1.9-0.1,3.7-1.1,4.8-2.7v-3.4c-1.2-0.6-2.4-0.9-3.7-0.9c-2.6,0-4.3,1.3-4.3,3.5c-0.1,1.8,1.2,3.3,3,3.4L524.4,185.2z"
	/>
<path class="st0" d="M548.8,159.2l-0.7-1.6c-0.2-0.4,0-0.8,0.3-1l8.4-4.9c0.3-0.2,1.1-0.3,1.4,0.2l1.2,2.4c0.3,0.4,0.1,1-0.3,1.3
	l0,0l-9,3.8C549.4,159.8,549,159.6,548.8,159.2z M551.3,168.1c0-0.6,0.4-1,1-1h3c0.6,0,1,0.4,1,1v19.3c0,0.5-0.5,1-1,1h-3
	c-0.5,0-1-0.5-1-1V168.1z"/>
<path class="st0" d="M583.6,166.6c3,0,5.9,1.4,7.8,3.8c0.4,0.4,0.3,1-0.1,1.4c0,0,0,0-0.1,0.1l0,0l-1.8,1.6c-0.6,0.6-1,0.2-1.4-0.2
	c-1.1-1.2-2.6-2-4.3-2c-3.6,0.2-6.4,3.4-6.2,7c0.2,3.3,2.8,5.9,6.1,6.2c2.7,0,3.8-1.4,5-2.5c0.4-0.4,1-0.5,1.4-0.1c0,0,0,0,0,0l0,0
	l1.4,1.2c0.5,0.4,0.8,1,0.4,1.5c-1.8,2.9-4.9,4.6-8.3,4.5c-6.1,0-11.1-4.9-11.2-11.1c0,0,0,0,0,0v-0.1
	C572.5,171.7,577.5,166.7,583.6,166.6z"/>
<path class="st0" d="M617,166.6c5.3-0.1,9.7,4.1,9.8,9.4v0.5c0,0.5,0,1-0.1,1.4c0,0.5-0.5,0.9-1,0.9h-14.5c0.2,3.2,2.9,5.7,6.2,5.7
	c1.7-0.1,3.3-0.6,4.8-1.6c0.6-0.4,1-0.6,1.4-0.1l1.5,2c0.4,0.3,0.4,0.8,0.2,1.2c-0.1,0.1-0.2,0.2-0.3,0.2c-2.2,1.8-5,2.7-7.9,2.7
	c-6.5,0-10.7-5.1-10.7-11.2S610.6,166.6,617,166.6z M621.9,175.4c-0.1-2.6-2.3-4.7-4.9-4.8c-2.8,0-5.1,2-5.5,4.8H621.9z"/>
<path class="st0" d="M641.4,185.7l1.1-2.1c0.3-0.4,0.8-0.6,1.2-0.3l0.1,0.1c1.5,0.9,3.2,1.3,5,1.4c1.6,0,2.6-0.6,2.6-1.8
	c0-1.4-1.2-2.1-4.1-3.5c-3.3-1.4-6.1-3.5-6.1-7c0-2.7,2.2-5.9,7.3-5.9c2.2,0,4.4,0.5,6.3,1.7c0.5,0.3,0.7,1,0.4,1.6l-1,1.8
	c-0.3,0.5-0.9,0.6-1.4,0.4c-1.4-0.6-2.9-1-4.4-1.1c-1.8,0-2.4,0.8-2.4,1.6c0,1.4,1.3,2,3.4,2.9c3.9,1.7,7.1,3.4,7.1,7.4
	c0,3.3-3.2,6.2-7.9,6.2c-2.5,0.1-5-0.7-7-2.2C641.3,186.5,641.2,186,641.4,185.7z"/>
<path class="st0" d="M562.3,24c0.1-1.7,1.5-3.1,3.2-3.2h20.7c1.8,0,3.2,1.4,3.2,3.2v0l0,0v68c0,11.8,8.7,21.2,20.7,21.2
	c12.1,0,21-9.4,21-21.2V24c0-1.7,1.4-3.2,3.2-3.2h20.7c1.7,0.1,3.1,1.5,3.2,3.2v69.4c0,25.5-21.5,46.7-48,46.7s-47.7-21.2-47.7-46.7
	L562.3,24z"/>
<path class="st0" d="M431.3,24.1c0-1.7,1.3-3.1,3-3.2h41c32.4,0,59,26.7,59,59.5c0,33.1-26.5,59.8-59,59.8h-41c-1.7-0.1-3-1.5-3-3.2
	L431.3,24.1z M473.6,114.9c19,0,32.8-15.2,32.8-34.6c0-19.2-13.8-34.4-32.8-34.4h-16.1v69L473.6,114.9z"/>
<path class="st0" d="M288.9,23.6c0.2-1.5,1.5-2.6,3-2.7h2.7c1.2,0.1,2.2,0.7,2.9,1.7l39,72.6h0.3l39-72.6c0.6-1,1.7-1.6,2.9-1.7h2.7
	c1.5,0.1,2.8,1.2,3,2.7l19,112.9c0.3,1.7-0.7,3.3-2.4,3.6c0,0,0,0,0,0c-0.3,0.1-0.5,0.1-0.8,0.1h-19.9c-1.6-0.1-2.9-1.2-3.2-2.7
	l-7.6-51.9h-0.3l-28.2,52.7c-0.6,1-1.7,1.7-2.9,1.8h-3c-1.2-0.1-2.3-0.8-2.9-1.8l-28.4-52.7h-0.3l-7.4,51.9
	c-0.3,1.5-1.6,2.7-3.2,2.7h-19.9c-1.7,0.1-3.2-1.2-3.2-2.9c0-0.3,0-0.5,0.1-0.8L288.9,23.6z"/>
</svg>
