<?xml version="1.0" encoding="utf-8"?>
<!-- Generator: Adobe Illustrator 23.0.3, SVG Export Plug-In . SVG Version: 6.00 Build 0)  -->
<svg version="1.1" id="Capa_1" xmlns="http://www.w3.org/2000/svg" xmlns:xlink="http://www.w3.org/1999/xlink" x="0px" y="0px"
	 viewBox="0 0 500 500" style="enable-background:new 0 0 500 500;" xml:space="preserve">
<style type="text/css">
	.st0{fill:#F3CA4C;}
</style>
<g>
	<path class="st0" d="M250.12,211.38c-9.07,0-16.67,4.22-22.79,12.65c-6.12,8.44-9.18,19.51-9.18,33.21
		c0,11.15,2.19,20.45,6.58,27.9c4.38,7.46,10.13,11.18,17.23,11.18c10.43,0,19.42-5.08,26.98-15.25
		c7.56-10.17,11.34-21.8,11.34-34.91c0-10.54-3.06-18.98-9.19-25.3S257.97,211.38,250.12,211.38z"/>
	<path class="st0" d="M250.46,0.03C112.45-0.1,0.13,111.78,0,249.53c-0.14,138.29,111.78,250.36,250.1,250.44
		c137.36,0.08,249.76-111.89,249.9-248.95C500.14,112.47,388.48,0.16,250.46,0.03z M384.66,306.26
		c-18.23,21.77-39.84,32.65-64.84,32.65c-15.04,0-26.84-5.11-35.41-15.34c-1.77-2.11-4.95-2.28-6.88-0.32
		c-10.86,11.04-23.61,16.56-38.24,16.56c-18.26,0-33.89-7.72-46.87-23.16c-12.98-15.44-19.47-35.73-19.47-60.89
		c0-25.76,7.32-46.8,21.96-63.15c14.64-16.34,32.22-24.51,52.75-24.51c10.93,0,21.12,3.15,30.55,9.46c2.61,1.75,6.17,0.38,7-2.66
		c0.55-2.02,2.38-3.41,4.47-3.41h33.93c2.78,0,4.94,2.43,4.6,5.2l-11.79,96.25c-0.76,6.93-1.13,12.96-1.13,18.07
		c0,6.33,2.94,9.49,8.81,9.49c10.84,0,21.31-6.85,31.41-20.56c10.09-13.7,15.14-30.88,15.14-51.51c0-30.12-11.01-55.13-33.02-75.01
		c-22.01-19.88-49-29.82-80.96-29.82c-34.68,0-63.93,12.09-87.75,36.26c-23.82,24.17-35.73,54.34-35.73,90.49
		c0,33.29,11.12,62.28,33.36,86.99c22.24,24.7,53.64,37.05,94.2,37.05c29.95,0,60.73-7.9,92.33-23.7c2.41-1.21,5.35-0.09,6.36,2.41
		l11.43,28.41c0.9,2.23-0.05,4.8-2.21,5.87c-35.1,17.4-71.04,26.1-107.81,26.1c-52.87,0-94.89-16.08-126.07-48.24
		C103.59,333.07,88,294.7,88,250.11c0-46.54,16.38-85.44,49.14-116.7c32.76-31.25,72.41-46.88,118.96-46.88
		c44.28,0,81.34,13.75,111.16,41.23c29.82,27.49,44.74,60.74,44.74,99.75C412,258.25,402.88,284.49,384.66,306.26z"/>
</g>
</svg>
