<?xml version="1.0" encoding="utf-8"?>
<!-- Generator: Adobe Illustrator 23.0.3, SVG Export Plug-In . SVG Version: 6.00 Build 0)  -->
<svg version="1.1" id="Capa_1" xmlns="http://www.w3.org/2000/svg" xmlns:xlink="http://www.w3.org/1999/xlink" x="0px" y="0px"
	 viewBox="0 0 500 500" style="enable-background:new 0 0 500 500;" xml:space="preserve">
<style type="text/css">
	.st0{fill:#F3CA4C;}
</style>
<path class="st0" d="M287.78,499.97c0-61.46,0-122.87,0-185.25c10.22,0,20.31,0,30.4,0c4.65,0,9.3,0.09,13.94-0.03
	c7.45-0.2,12.19-4.09,13.22-11.45c1.64-11.68,3.13-23.4,4.26-35.14c1.08-11.19-3.66-16.23-14.76-16.27
	c-15.47-0.06-30.95-0.01-46.77-0.01c-0.24-1.81-0.61-3.28-0.62-4.76c-0.04-12.93-0.23-25.86,0.04-38.78
	c0.31-15.08,10.74-25.43,25.73-25.8c7.52-0.19,15.05,0.03,22.57-0.07c9.45-0.12,13.99-4.45,14.1-13.79
	c0.16-13.37,0.14-26.74,0-40.11c-0.07-7.38-3.45-12.51-9.76-13.09c-22.69-2.07-45.53-4.45-68.04,0.82
	c-32.94,7.7-54.35,32.26-57.73,67.47c-1.86,19.45-1.26,39.15-1.75,58.73c-0.07,2.85-0.01,5.7-0.01,9.38c-12.45,0-24.33,0-36.2,0
	c-4.65,0-9.3-0.16-13.94,0.07c-7.28,0.36-12.1,4.97-12.25,12.26c-0.26,12.7-0.27,25.41-0.01,38.1c0.16,7.95,5.1,12.36,13.41,12.43
	c13.94,0.12,27.88,0.02,41.83,0.05c2.15,0,4.31,0.18,6.8,0.3c0,61.83,0,123.24,0,184.68C111.05,487.77,4.34,394.67,0.13,259.59
	C-4.16,122.35,102.11,7.64,236.26,0.4c139.97-7.56,255.25,100.53,263.26,235.48C508.1,380.36,399.75,485.25,287.78,499.97z"/>
</svg>
