<?xml version="1.0" encoding="utf-8"?>
<!-- Generator: Adobe Illustrator 23.0.3, SVG Export Plug-In . SVG Version: 6.00 Build 0)  -->
<svg version="1.1" id="Capa_1" xmlns="http://www.w3.org/2000/svg" xmlns:xlink="http://www.w3.org/1999/xlink" x="0px" y="0px"
	 viewBox="0 0 500 500" style="enable-background:new 0 0 500 500;" xml:space="preserve">
<style type="text/css">
	.st0{fill:#F3CA4C;}
</style>
<path class="st0" d="M250.17,500C111.96,499.92,0.14,387.84,0.28,249.53C0.41,111.77,112.63-0.13,250.53,0
	C388.43,0.13,500,112.45,499.86,251.03C499.72,388.1,387.42,500.08,250.17,500z M269.73,332.25c-1.39-0.95-2.06-1.28-2.57-1.78
	c-24.95-23.75-46.3-50.23-61.03-81.6c-5.92-12.61-9.75-25.82-8.76-40.04c0.67-9.69,0.72-9.79,9.72-7.16
	c18.66,5.45,24.32,2.21,29.28-16.79c0.09-0.36,0.14-0.74,0.23-1.1c5.61-23.2,9.65-46.74,14.84-70.03
	c2.42-10.84,1.58-18.23-14.11-23.27c-30.81-9.88-68.49,4.75-86.41,33.76c-20.24,32.79-27.91,68.28-20.4,106.29
	c12.25,62.04,42.99,113.36,91.81,153.45c23.89,19.62,50.63,31.98,82.83,28.76c24.4-2.43,45.68-10.4,61.25-30.37
	c7.5-9.62,7.77-11.04-0.1-20.01c-17.24-19.65-34.73-39.09-52.07-58.65c-3.21-3.63-5.75-7.83-9.41-11.09
	c-3.64-3.23-7.48-3.88-11.72-1.17c-7.37,4.71-13.47,10.57-17.34,18.59C272.52,316.82,270.6,323.94,269.73,332.25z"/>
</svg>
