<?xml version="1.0" encoding="utf-8"?>
<!-- Generator: Adobe Illustrator 23.0.3, SVG Export Plug-In . SVG Version: 6.00 Build 0)  -->
<svg version="1.1" id="Capa_1" xmlns="http://www.w3.org/2000/svg" xmlns:xlink="http://www.w3.org/1999/xlink" x="0px" y="0px"
	 viewBox="0 0 500 500" style="enable-background:new 0 0 500 500;" xml:space="preserve">
<style type="text/css">
	.st0{fill:#F3CA4C;}
</style>
<g>
	<path class="st0" d="M322.98,116.75c-12.64-0.68-25.33-0.81-38-0.76c-36.18,0.12-72.39-0.22-108.54,0.9
		c-32.12,0.99-59.28,29.47-59.69,61.65c-0.53,41.32-0.44,82.64-0.45,123.97c0,8.55,0.09,17.17,1.18,25.62
		c3.73,28.94,29.62,53.13,58.8,54.42c24.4,1.07,48.84,1.08,73.27,1.56c23.86-0.43,47.73-0.35,71.56-1.42
		c34.72-1.56,61.26-28.88,61.9-63.57c0.62-33.44,0.62-66.89,0.63-100.34c0-14.72,0.01-29.49-1.13-44.15
		C380.09,143.77,353.81,118.42,322.98,116.75z M249.69,334.5c-46.77-0.11-84.71-38.2-84.61-84.93c0.1-46.82,38.14-84.8,84.82-84.71
		c46.73,0.1,84.71,38.2,84.66,84.92C334.5,296.5,296.31,334.62,249.69,334.5z M335.33,182.53c-10.59,0.1-19.23-8.39-19.29-18.95
		c-0.06-10.6,8.45-19.24,18.99-19.28c10.46-0.04,19.22,8.7,19.19,19.16C354.19,173.84,345.69,182.43,335.33,182.53z"/>
	<path class="st0" d="M249.83,195.63c-29.76,0-54.05,24.26-54.07,54.02c-0.03,29.73,24.3,54.09,54.01,54.09
		c29.78,0,54-24.22,54.01-54.03C303.79,219.9,279.59,195.64,249.83,195.63z"/>
	<path class="st0" d="M249.4,0.03C111.26,0.19-0.13,111.97,0,250.3c0.13,138.26,111.74,249.74,249.97,249.69
		c138.75-0.05,250.2-111.87,250.03-250.87C499.83,111.25,387.78-0.14,249.4,0.03z M413.33,324.71
		c-2.04,40.01-30.4,74.41-68.99,85.33c-10.45,2.96-21.09,3.54-31.84,3.79c-45.09,1.03-90.18,0.99-135.26-0.33
		c-44.04-1.29-82.96-35.37-89.93-78.86c-0.9-5.61-1.3-11.34-1.45-17.03c-1.25-45.43-0.92-90.86-0.1-136.3
		c0.87-47.76,33.56-86.58,80.69-94.34c9.17-1.51,18.66-1.49,28-1.49c42.69-0.01,85.39-0.2,128.07,0.5
		c43.28,0.71,82.06,34.61,89.46,77.23c1.01,5.83,1.75,11.78,1.8,17.67c0.21,22.94,0.08,45.89,0.08,68.84c0.37,0,0.74,0,1.12,0
		C414.47,274.73,414.6,299.76,413.33,324.71z"/>
</g>
</svg>
