<?xml version="1.0" encoding="utf-8"?>
<!-- Generator: Adobe Illustrator 23.0.3, SVG Export Plug-In . SVG Version: 6.00 Build 0)  -->
<svg version="1.1" id="Capa_1" xmlns="http://www.w3.org/2000/svg" xmlns:xlink="http://www.w3.org/1999/xlink" x="0px" y="0px"
	 viewBox="0 0 500 500" style="enable-background:new 0 0 500 500;" xml:space="preserve">
<style type="text/css">
	.st0{fill:#F3CA4C;}
</style>
<g>
	<path class="st0" d="M500,249.99c0,138.07-111.93,249.99-249.99,249.99S0.01,388.06,0.01,249.99S111.94,0,250.01,0
		S500,111.93,500,249.99z M204.48,110.29c-46.91,22.79-66.32,73.88-49.13,128.03c18.46,58.13,51.18,108.75,86,158.08
		c6.02,8.52,11.56,8.13,18.03-1.25c12.42-17.99,24.84-36.03,36.17-54.71c23.12-38.12,44.96-76.95,53.5-121.49
		c11.21-58.49-31.22-113.16-89.9-120.97c-5.95-0.79-13.46-0.7-20.36,0.47C225.94,100.61,215.94,104.01,204.48,110.29z"/>
	<circle class="st0" cx="249.31" cy="200.84" r="57.43"/>
</g>
</svg>
