<svg id="Capa_1" data-name="Capa 1" xmlns="http://www.w3.org/2000/svg" viewBox="0 0 506.59 204.85"><defs><style>.cls-1{fill:#f3ca4c;}</style></defs><title>LOGOS con slogan</title><path class="cls-1" d="M88.23,4.81a76.65,76.65,0,1,0,76.64,76.65A76.74,76.74,0,0,0,88.23,4.81Zm0,143.91a67.26,67.26,0,1,1,67.26-67.26A67.33,67.33,0,0,1,88.23,148.72Z" transform="translate(-3.92 -4.81)"/><path class="cls-1" d="M149.51,80.3a58.22,58.22,0,0,1-13.61,6V61a3.8,3.8,0,0,0-3.81-3.81H115.37A3.81,3.81,0,0,0,111.55,61V89.24a110.59,110.59,0,0,1-11.67-.91,3.69,3.69,0,0,0,.52-1.87V36a3.66,3.66,0,0,0-3.66-3.66h-17A3.66,3.66,0,0,0,76.05,36V83.83c-3.91-.68-7.62-1.18-11.15-1.54V55.17a3,3,0,0,0-3-3H43.54a3,3,0,0,0-3,3V82A80.16,80.16,0,0,0,27,84.54a61.31,61.31,0,0,0,122.54-3.08C149.54,81.07,149.52,80.68,149.51,80.3Z" transform="translate(-3.92 -4.81)"/><path class="cls-1" d="M213.38,118.34a.79.79,0,0,1,.76-.76h2.31a.79.79,0,0,1,.76.76V130a9.62,9.62,0,0,1,3.83-.88c4.42,0,7.85,3.71,7.85,8.37s-3.23,8.38-7.45,8.38a7.14,7.14,0,0,1-5.07-2.24l-.31,1.16c-.12.4-.36.68-.72.68h-1.2a.79.79,0,0,1-.76-.76ZM221,142.46c2.55,0,4.23-2.27,4.23-5a4.63,4.63,0,0,0-4.55-4.9,6.82,6.82,0,0,0-3.47.92v6.54A4.31,4.31,0,0,0,221,142.46Z" transform="translate(-3.92 -4.81)"/><path class="cls-1" d="M240.46,120.73a2.29,2.29,0,0,1,2.27-2.35,2.33,2.33,0,1,1,0,4.66A2.28,2.28,0,0,1,240.46,120.73Zm.44,9.57a.79.79,0,0,1,.75-.76h2.28a.78.78,0,0,1,.75.76v14.43a.78.78,0,0,1-.75.76h-2.28a.79.79,0,0,1-.75-.76Z" transform="translate(-3.92 -4.81)"/><path class="cls-1" d="M264.66,129.14a7.18,7.18,0,0,1,7.34,7.38,9.63,9.63,0,0,1-.08,1.07.74.74,0,0,1-.72.68H260.35a4.63,4.63,0,0,0,4.59,4.27,6.79,6.79,0,0,0,3.55-1.16c.48-.28.76-.44,1.07,0l1.12,1.52a.61.61,0,0,1-.08,1,9.15,9.15,0,0,1-5.9,2c-4.82,0-8-3.79-8-8.38S259.88,129.14,264.66,129.14Zm3.63,6.62a3.78,3.78,0,0,0-3.67-3.55,4,4,0,0,0-4.07,3.55Z" transform="translate(-3.92 -4.81)"/><path class="cls-1" d="M283.8,130.3a.79.79,0,0,1,.76-.76h1.15a.65.65,0,0,1,.64.48l.48,1.35a8.2,8.2,0,0,1,5.58-2.23c4.87,0,6.66,3.43,6.66,7.58v8a.79.79,0,0,1-.76.76H296a.76.76,0,0,1-.76-.76v-8.17c0-2.55-1.23-3.95-3.31-3.95a5.26,5.26,0,0,0-4.42,2.39v9.73c0,.52-.24.76-.92.76h-2.07a.79.79,0,0,1-.76-.76Z" transform="translate(-3.92 -4.81)"/><path class="cls-1" d="M318.85,129.14a7.17,7.17,0,0,1,7.33,7.38,9.63,9.63,0,0,1-.08,1.07.73.73,0,0,1-.71.68H314.54a4.63,4.63,0,0,0,4.59,4.27,6.82,6.82,0,0,0,3.55-1.16c.47-.28.75-.44,1.07,0l1.12,1.52a.61.61,0,0,1-.08,1,9.15,9.15,0,0,1-5.9,2c-4.83,0-8-3.79-8-8.38S314.06,129.14,318.85,129.14Zm3.63,6.62a3.78,3.78,0,0,0-3.67-3.55,4,4,0,0,0-4.07,3.55Z" transform="translate(-3.92 -4.81)"/><path class="cls-1" d="M337,143.41l.84-1.55a.69.69,0,0,1,1-.2,8.21,8.21,0,0,0,3.7,1c1.2,0,2-.48,2-1.36,0-1.07-.88-1.59-3.07-2.59-2.47-1.08-4.55-2.59-4.55-5.22,0-2,1.64-4.39,5.46-4.39a8.93,8.93,0,0,1,4.71,1.24.88.88,0,0,1,.32,1.15l-.72,1.36a.84.84,0,0,1-1,.32,9.06,9.06,0,0,0-3.27-.84c-1.35,0-1.79.6-1.79,1.2,0,1,1,1.47,2.55,2.15,2.91,1.28,5.3,2.51,5.3,5.5,0,2.47-2.35,4.67-5.9,4.67a8.35,8.35,0,0,1-5.26-1.64A.67.67,0,0,1,337,143.41Z" transform="translate(-3.92 -4.81)"/><path class="cls-1" d="M377,130.3a.79.79,0,0,1,.76-.76h1.16a.76.76,0,0,1,.68.56l.43,1.35a5.72,5.72,0,0,1,4.67-2.31c1.51,0,3.35.4,2.91,1.48l-1,1.95a.67.67,0,0,1-.95.36,3.66,3.66,0,0,0-1.36-.28,4.21,4.21,0,0,0-3.59,1.95v10.13c0,.68-.44.76-1.07.76h-1.92a.79.79,0,0,1-.76-.76Z" transform="translate(-3.92 -4.81)"/><path class="cls-1" d="M403.58,135.4a11.49,11.49,0,0,1,3.15.48c0-2.51-.44-3.51-2.47-3.51a16.91,16.91,0,0,0-4.47.72c-.48.12-.76-.2-.88-.64L398.6,131a.72.72,0,0,1,.51-.92,16.48,16.48,0,0,1,5.51-.92c5.1,0,5.58,3.11,5.58,7.1v8.49a.79.79,0,0,1-.76.76h-1.12c-.36,0-.51-.16-.67-.56l-.4-1.08a6.9,6.9,0,0,1-4.91,2c-3,0-5.14-2-5.14-5.35C397.2,137.63,399.51,135.4,403.58,135.4Zm-.48,7.66a4.71,4.71,0,0,0,3.59-2v-2.55a6,6,0,0,0-2.79-.64c-1.91,0-3.23,1-3.23,2.63A2.4,2.4,0,0,0,403.1,143.06Z" transform="translate(-3.92 -4.81)"/><path class="cls-1" d="M421.32,123.68l-.55-1.16a.55.55,0,0,1,.24-.75l6.25-3.63c.24-.16.84-.24,1,.12l.92,1.75a.68.68,0,0,1-.24,1l-6.7,2.87C421.72,124.12,421.48,124,421.32,123.68Zm1.88,6.62a.79.79,0,0,1,.76-.76h2.27a.78.78,0,0,1,.75.76v14.43a.78.78,0,0,1-.75.76H424a.79.79,0,0,1-.76-.76Z" transform="translate(-3.92 -4.81)"/><path class="cls-1" d="M447.32,129.14A7.07,7.07,0,0,1,453.1,132a.78.78,0,0,1-.16,1.12l-1.31,1.19c-.48.44-.76.12-1.08-.16a4.45,4.45,0,0,0-3.19-1.51,4.93,4.93,0,1,0,3.67,8,.74.74,0,0,1,1.07-.08l1.08.88c.4.32.56.72.28,1.12a7.09,7.09,0,0,1-6.18,3.35,8.31,8.31,0,0,1-8.33-8.34A8.48,8.48,0,0,1,447.32,129.14Z" transform="translate(-3.92 -4.81)"/><path class="cls-1" d="M472.24,129.14a7.18,7.18,0,0,1,7.34,7.38,9.63,9.63,0,0,1-.08,1.07.74.74,0,0,1-.72.68H467.93a4.63,4.63,0,0,0,4.59,4.27,6.82,6.82,0,0,0,3.55-1.16c.48-.28.76-.44,1.07,0l1.12,1.52a.61.61,0,0,1-.08,1,9.15,9.15,0,0,1-5.9,2c-4.82,0-8-3.79-8-8.38S467.46,129.14,472.24,129.14Zm3.63,6.62a3.78,3.78,0,0,0-3.67-3.55,4,4,0,0,0-4.07,3.55Z" transform="translate(-3.92 -4.81)"/><path class="cls-1" d="M490.42,143.41l.84-1.55a.69.69,0,0,1,1-.2,8.22,8.22,0,0,0,3.71,1c1.19,0,1.95-.48,1.95-1.36,0-1.07-.88-1.59-3.07-2.59-2.47-1.08-4.55-2.59-4.55-5.22,0-2,1.64-4.39,5.47-4.39a8.92,8.92,0,0,1,4.7,1.24.88.88,0,0,1,.32,1.15l-.72,1.36a.83.83,0,0,1-1,.32,9.13,9.13,0,0,0-3.27-.84c-1.36,0-1.8.6-1.8,1.2,0,1,1,1.47,2.55,2.15,2.91,1.28,5.31,2.51,5.31,5.5,0,2.47-2.36,4.67-5.9,4.67a8.36,8.36,0,0,1-5.27-1.64A.67.67,0,0,1,490.42,143.41Z" transform="translate(-3.92 -4.81)"/><path class="cls-1" d="M431.37,22.75a2.47,2.47,0,0,1,2.38-2.38h15.43a2.38,2.38,0,0,1,2.38,2.38V73.53c0,8.78,6.52,15.8,15.42,15.8a15.48,15.48,0,0,0,15.68-15.8V22.75A2.38,2.38,0,0,1,485,20.37h15.42a2.47,2.47,0,0,1,2.38,2.38V74.53c0,19.06-16,34.86-35.86,34.86s-35.61-15.8-35.61-34.86Z" transform="translate(-3.92 -4.81)"/><path class="cls-1" d="M333.59,22.78a2.37,2.37,0,0,1,2.26-2.41h30.59c24.2,0,44,20,44,44.38,0,24.68-19.81,44.65-44,44.65H335.85a2.38,2.38,0,0,1-2.26-2.42Zm31.6,67.79c14.17,0,24.45-11.32,24.45-25.82s-10.28-25.69-24.45-25.69h-12V90.57Z" transform="translate(-3.92 -4.81)"/><path class="cls-1" d="M227.25,22.37a2.39,2.39,0,0,1,2.26-2h2a2.75,2.75,0,0,1,2.13,1.25l29.1,54.17H263l29.09-54.17a2.75,2.75,0,0,1,2.13-1.25h2a2.38,2.38,0,0,1,2.26,2l14.17,84.26a2.3,2.3,0,0,1-2.38,2.76h-14.8a2.55,2.55,0,0,1-2.38-2l-5.64-38.75h-.25L266.12,108a2.93,2.93,0,0,1-2.13,1.37h-2.26A2.73,2.73,0,0,1,259.6,108L238.41,68.64h-.25l-5.52,38.75a2.43,2.43,0,0,1-2.38,2h-14.8a2.3,2.3,0,0,1-2.38-2.76Z" transform="translate(-3.92 -4.81)"/><path class="cls-1" d="M347.45,25.9" transform="translate(-3.92 -4.81)"/><path class="cls-1" d="M7.43,193.8H9.5L7.36,209.66H3.92Zm1.8-5.34c1.07,0,1.62.55,1.62,1.48a1.8,1.8,0,0,1-1.83,2c-1.07,0-1.62-.55-1.62-1.48A1.79,1.79,0,0,1,9.23,188.46Z" transform="translate(-3.92 -4.81)"/><path class="cls-1" d="M19,182.42h2.42L29.3,199l2.93-16.55H35l-3.83,21.73H28.75l-7.94-16.56-2.93,16.56H15.12Z" transform="translate(-3.92 -4.81)"/><path class="cls-1" d="M40.13,188.63h2.58l-1.51,8.65c-.45,2.59,1.2,4.62,3.41,4.62a4.43,4.43,0,0,0,4.41-4l1.63-9.31h2.58l-2.72,15.52h-1.9l-.41-1.73a6.51,6.51,0,0,1-1.14,1,5.38,5.38,0,0,1-3.07.93c-4,0-5.45-3.17-5.45-5.93a9.4,9.4,0,0,1,.1-1.35Z" transform="translate(-3.92 -4.81)"/><path class="cls-1" d="M69.89,200a8.06,8.06,0,0,1-6.9,4.31,6.55,6.55,0,0,1-6.55-6.9c0-5.31,4-9,7.93-9a6.35,6.35,0,0,1,6.52,6.62,6.48,6.48,0,0,1-.48,2.51H59.06c.1,2.11,1.48,4.31,4.1,4.31A5.13,5.13,0,0,0,66.85,200Zm-1.62-4.66c.1-2.76-1.76-4.48-3.86-4.48s-4.25,1.9-5.07,4.48Z" transform="translate(-3.92 -4.81)"/><path class="cls-1" d="M76.61,199.49c0,1.48,1.11,2.41,3,2.41a2.54,2.54,0,0,0,2.79-2.34c0-2.79-7-1.59-7-6.14a5.14,5.14,0,0,1,5.41-5c3.34,0,5.1,2.17,5.1,4.65H83.37c0-1.24-.79-2.24-2.62-2.24a2.43,2.43,0,0,0-2.65,2.21c0,2.79,6.93,1.58,6.93,6.13,0,2.94-2.31,5.11-5.52,5.11-3.48,0-5.45-2.28-5.45-4.83Z" transform="translate(-3.92 -4.81)"/><path class="cls-1" d="M92.58,191H89.82l.41-2.41h1.21a2.15,2.15,0,0,0,2.24-1.9l.38-2.24h2.28l-.76,4.14H99L98.61,191H95.13L93.79,199c-.28,1.62.44,2.93,2.27,2.93a1.91,1.91,0,0,0,.48,0l.21-.07-.41,2.28-.31.13a2.76,2.76,0,0,1-.86.11c-2.45,0-4-1.86-4-4.45a7.31,7.31,0,0,1,.1-1.14Z" transform="translate(-3.92 -4.81)"/><path class="cls-1" d="M104.06,188.63H106l.41,1.72a5.16,5.16,0,0,1,1.11-.93,6.47,6.47,0,0,1,3.69-1h.34l-.45,2.58h-.69c-2.86,0-4.44,1.69-4.89,4.31l-1.55,8.8h-2.59Z" transform="translate(-3.92 -4.81)"/><path class="cls-1" d="M122.34,202.42a4.5,4.5,0,0,1-1.14,1,5.9,5.9,0,0,1-3.27.93c-3.14,0-4.94-2-4.94-4.42,0-4,4.69-5.24,10.76-5.24l.11-.58c.27-1.76-1.17-3.21-3.21-3.21a3.38,3.38,0,0,0-3.17,2.24h-2.87a6.63,6.63,0,0,1,6.21-4.65c4.8,0,6,3.65,5.59,5.72l-1.76,10h-1.9Zm1-5.34c-7,0-7.73,1.27-7.73,2.93,0,1.27,1.24,1.89,2.66,1.89a4.92,4.92,0,0,0,4.86-3.62Z" transform="translate(-3.92 -4.81)"/><path class="cls-1" d="M141.62,188.63h1.89l.42,1.72a5.36,5.36,0,0,1,1.14-.93,5.65,5.65,0,0,1,3.2-1c3.73,0,6.56,2.89,6.56,6.93,0,5.31-4,8.93-8.07,8.93a5.6,5.6,0,0,1-4.9-2.45l-1.38,7.79h-2.55Zm10.58,7c0-2.79-1.89-4.72-4.13-4.72-2.56,0-5.38,2.59-5.38,6.34,0,2.76,1.89,4.69,4.13,4.69C149.38,201.9,152.2,199.32,152.2,195.59Z" transform="translate(-3.92 -4.81)"/><path class="cls-1" d="M160.76,188.63h1.89l.42,1.72a5.1,5.1,0,0,1,1.1-.93,6.47,6.47,0,0,1,3.69-1h.35l-.45,2.58h-.69c-2.86,0-4.45,1.69-4.9,4.31l-1.55,8.8H158Z" transform="translate(-3.92 -4.81)"/><path class="cls-1" d="M172.34,188.63h2.59l-2.72,15.52h-2.59Zm.25-4.14a1.9,1.9,0,0,1,1.93-1.9,1.33,1.33,0,0,1,1.41,1.38,1.94,1.94,0,0,1-2,1.9A1.31,1.31,0,0,1,172.59,184.49Z" transform="translate(-3.92 -4.81)"/><path class="cls-1" d="M178.14,197.42c0-5.31,4-9,8.07-9a6.54,6.54,0,0,1,6.55,6.89c0,5.31-4,9-8.07,9A6.55,6.55,0,0,1,178.14,197.42Zm12-1.83c0-2.79-1.86-4.72-4.07-4.72-2.59,0-5.31,2.59-5.31,6.34,0,2.76,1.86,4.69,4.07,4.69C187.41,201.9,190.14,199.32,190.14,195.59Z" transform="translate(-3.92 -4.81)"/><path class="cls-1" d="M198.79,188.63h1.9l.41,1.72a5.42,5.42,0,0,1,1.11-.93,6.47,6.47,0,0,1,3.69-1h.34l-.45,2.58h-.69c-2.86,0-4.44,1.69-4.89,4.31l-1.55,8.8h-2.59Z" transform="translate(-3.92 -4.81)"/><path class="cls-1" d="M210.38,188.63H213l-2.73,15.52h-2.58Zm.24-4.14a1.91,1.91,0,0,1,1.93-1.9A1.33,1.33,0,0,1,214,184a1.94,1.94,0,0,1-2,1.9A1.32,1.32,0,0,1,210.62,184.49Z" transform="translate(-3.92 -4.81)"/><path class="cls-1" d="M227.07,202.42a4.5,4.5,0,0,1-1.14,1,5.83,5.83,0,0,1-3.2.93c-3.73,0-6.56-2.9-6.56-6.93,0-5.31,4-8.93,8.07-8.93a5.6,5.6,0,0,1,4.9,2.44l1.48-8.48h2.59l-3.83,21.73h-1.89Zm1.24-6.86c0-2.76-1.89-4.69-4.14-4.69-2.55,0-5.37,2.59-5.37,6.31,0,2.79,1.89,4.72,4.13,4.72C225.49,201.9,228.31,199.32,228.31,195.56Z" transform="translate(-3.92 -4.81)"/><path class="cls-1" d="M244.73,202.42a4.5,4.5,0,0,1-1.14,1,5.9,5.9,0,0,1-3.27.93c-3.14,0-4.94-2-4.94-4.42,0-4,4.69-5.24,10.76-5.24l.11-.58c.27-1.76-1.18-3.21-3.21-3.21a3.39,3.39,0,0,0-3.17,2.24H237a6.63,6.63,0,0,1,6.21-4.65c4.8,0,6,3.65,5.59,5.72l-1.76,10h-1.9Zm1-5.34c-7,0-7.73,1.27-7.73,2.93,0,1.27,1.24,1.89,2.66,1.89a4.92,4.92,0,0,0,4.86-3.62Z" transform="translate(-3.92 -4.81)"/><path class="cls-1" d="M263.7,202.42a4.5,4.5,0,0,1-1.14,1,5.87,5.87,0,0,1-3.21.93c-3.72,0-6.55-2.9-6.55-6.93,0-5.31,4-8.93,8.07-8.93a5.57,5.57,0,0,1,4.89,2.44l1.49-8.48h2.58L266,204.15h-1.9Zm1.24-6.86c0-2.76-1.9-4.69-4.14-4.69-2.55,0-5.38,2.59-5.38,6.31,0,2.79,1.9,4.72,4.14,4.72C262.11,201.9,264.94,199.32,264.94,195.56Z" transform="translate(-3.92 -4.81)"/><path class="cls-1" d="M270.77,206.77a8.71,8.71,0,0,0,.76-.66,4.28,4.28,0,0,0,1.06-1.79,1.45,1.45,0,0,1-1.44-1.52,1.79,1.79,0,0,1,1.82-1.93,1.46,1.46,0,0,1,1.66,1.52c0,1.93-1.73,4-3.59,4.93Z" transform="translate(-3.92 -4.81)"/><path class="cls-1" d="M291.22,191h-2.76l.41-2.41h1.21a2.15,2.15,0,0,0,2.24-1.9l.38-2.24H295l-.76,4.14h3.44l-.41,2.41h-3.48L292.42,199c-.27,1.62.45,2.93,2.28,2.93a1.91,1.91,0,0,0,.48,0l.21-.07-.41,2.28-.31.13a2.79,2.79,0,0,1-.87.11c-2.45,0-4-1.86-4-4.45a6.27,6.27,0,0,1,.1-1.14Z" transform="translate(-3.92 -4.81)"/><path class="cls-1" d="M302.7,188.63h2.59l-1.52,8.65c-.45,2.59,1.21,4.62,3.41,4.62a4.45,4.45,0,0,0,4.42-4l1.62-9.31h2.59l-2.73,15.52h-1.9l-.41-1.73a6.17,6.17,0,0,1-1.14,1,5.35,5.35,0,0,1-3.07.93c-4,0-5.45-3.17-5.45-5.93a8.11,8.11,0,0,1,.11-1.35Z" transform="translate(-3.92 -4.81)"/><path class="cls-1" d="M329.87,199.49c0,1.48,1.11,2.41,3,2.41a2.54,2.54,0,0,0,2.79-2.34c0-2.79-7-1.59-7-6.14a5.14,5.14,0,0,1,5.41-5c3.35,0,5.1,2.17,5.1,4.65h-2.62c0-1.24-.79-2.24-2.62-2.24a2.43,2.43,0,0,0-2.65,2.21c0,2.79,6.93,1.58,6.93,6.13,0,2.94-2.31,5.11-5.52,5.11-3.48,0-5.45-2.28-5.45-4.83Z" transform="translate(-3.92 -4.81)"/><path class="cls-1" d="M351.74,202.42a4.5,4.5,0,0,1-1.14,1,5.91,5.91,0,0,1-3.28.93c-3.13,0-4.93-2-4.93-4.42,0-4,4.69-5.24,10.76-5.24l.11-.58c.27-1.76-1.18-3.21-3.21-3.21a3.38,3.38,0,0,0-3.17,2.24H344a6.63,6.63,0,0,1,6.21-4.65c4.8,0,6,3.65,5.59,5.72l-1.76,10h-1.9Zm1-5.34c-7,0-7.72,1.27-7.72,2.93,0,1.27,1.24,1.89,2.66,1.89a4.92,4.92,0,0,0,4.86-3.62Z" transform="translate(-3.92 -4.81)"/><path class="cls-1" d="M362.77,191H360l.41-2.41h1.21a2.15,2.15,0,0,0,2.24-1.9l.38-2.24h2.27l-.76,4.14h3.45l-.41,2.41h-3.48L364,199c-.27,1.62.45,2.93,2.28,2.93a1.91,1.91,0,0,0,.48,0l.21-.07-.42,2.28-.31.13a2.68,2.68,0,0,1-.86.11c-2.45,0-4-1.86-4-4.45a6.27,6.27,0,0,1,.1-1.14Z" transform="translate(-3.92 -4.81)"/><path class="cls-1" d="M374.26,188.63h2.58l-2.72,15.52h-2.59Zm.24-4.14a1.9,1.9,0,0,1,1.93-1.9,1.33,1.33,0,0,1,1.41,1.38,1.94,1.94,0,0,1-2,1.9A1.31,1.31,0,0,1,374.5,184.49Z" transform="translate(-3.92 -4.81)"/><path class="cls-1" d="M382.26,199.49c0,1.48,1.1,2.41,3,2.41a2.55,2.55,0,0,0,2.8-2.34c0-2.79-7-1.59-7-6.14a5.15,5.15,0,0,1,5.42-5c3.34,0,5.1,2.17,5.1,4.65H389c0-1.24-.8-2.24-2.62-2.24a2.44,2.44,0,0,0-2.66,2.21c0,2.79,6.93,1.58,6.93,6.13,0,2.94-2.31,5.11-5.51,5.11-3.49,0-5.45-2.28-5.45-4.83Z" transform="translate(-3.92 -4.81)"/><path class="cls-1" d="M397.54,191h-1.9l.41-2.41H398l.28-1.62a5.37,5.37,0,0,1,5-4.76,3.12,3.12,0,0,1,1.82.48l-.34,2.24-.35-.1a1.89,1.89,0,0,0-.82-.14,2.75,2.75,0,0,0-2.73,2.52l-.24,1.38H404l-.42,2.41h-3.45l-2.31,13.11h-2.58Z" transform="translate(-3.92 -4.81)"/><path class="cls-1" d="M414.85,202.42a4.5,4.5,0,0,1-1.14,1,5.91,5.91,0,0,1-3.28.93c-3.14,0-4.93-2-4.93-4.42,0-4,4.69-5.24,10.76-5.24l.1-.58c.28-1.76-1.17-3.21-3.2-3.21a3.41,3.41,0,0,0-3.18,2.24h-2.86a6.63,6.63,0,0,1,6.21-4.65c4.79,0,6,3.65,5.59,5.72l-1.76,10h-1.9Zm1-5.34c-7,0-7.72,1.27-7.72,2.93,0,1.27,1.24,1.89,2.65,1.89a4.92,4.92,0,0,0,4.87-3.62Z" transform="translate(-3.92 -4.81)"/><path class="cls-1" d="M436.85,198.63a8.08,8.08,0,0,1-7.45,5.69c-3.72,0-6.48-2.93-6.48-6.9,0-5.31,4-9,8.07-9a6.35,6.35,0,0,1,6.44,5.69h-2.68a4.14,4.14,0,0,0-3.9-3.28c-2.52,0-5.35,2.52-5.35,6.31,0,2.79,1.87,4.72,4.11,4.72a5.34,5.34,0,0,0,4.62-3.27Z" transform="translate(-3.92 -4.81)"/><path class="cls-1" d="M454.3,198.63a8.08,8.08,0,0,1-7.45,5.69c-3.72,0-6.48-2.93-6.48-6.9,0-5.31,4-9,8.07-9a6.37,6.37,0,0,1,6.45,5.69H452.2a4.14,4.14,0,0,0-3.9-3.28c-2.52,0-5.35,2.52-5.35,6.31,0,2.79,1.87,4.72,4.11,4.72a5.34,5.34,0,0,0,4.62-3.27Z" transform="translate(-3.92 -4.81)"/><path class="cls-1" d="M460.33,188.63h2.59l-2.72,15.52h-2.59Zm.24-4.14a1.91,1.91,0,0,1,1.94-1.9,1.33,1.33,0,0,1,1.41,1.38,1.94,1.94,0,0,1-2,1.9A1.32,1.32,0,0,1,460.57,184.49Z" transform="translate(-3.92 -4.81)"/><path class="cls-1" d="M466.13,197.42c0-5.31,4-9,8.07-9a6.54,6.54,0,0,1,6.55,6.89c0,5.31-4,9-8.07,9A6.55,6.55,0,0,1,466.13,197.42Zm12-1.83c0-2.79-1.86-4.72-4.07-4.72-2.59,0-5.31,2.59-5.31,6.34,0,2.76,1.86,4.69,4.07,4.69C475.4,201.9,478.13,199.32,478.13,195.59Zm-1.42-13.51h2.59l-3.65,4.13h-1.73Z" transform="translate(-3.92 -4.81)"/><path class="cls-1" d="M486.78,188.63h1.9l.41,1.72a8.56,8.56,0,0,1,1.14-.93,5.16,5.16,0,0,1,3.07-1c4,0,5.45,3.17,5.45,5.93a8,8,0,0,1-.1,1.34l-1.49,8.42h-2.58l1.52-8.66c.44-2.59-1.21-4.62-3.42-4.62a4.44,4.44,0,0,0-4.41,4l-1.62,9.32h-2.59Z" transform="translate(-3.92 -4.81)"/><path class="cls-1" d="M505.3,200.87c1.07,0,1.62.55,1.62,1.48a1.79,1.79,0,0,1-1.82,2c-1.07,0-1.62-.55-1.62-1.49A1.79,1.79,0,0,1,505.3,200.87Zm1.76-18.45h3.45L506.89,199h-2.07Z" transform="translate(-3.92 -4.81)"/></svg>