<svg id="Capa_1" data-name="Capa 1" xmlns="http://www.w3.org/2000/svg" viewBox="0 0 283.46 283.46"><defs><style>.cls-1{fill:#1c1c1c;}</style></defs><path class="cls-1" d="M249,98.29h0a4.33,4.33,0,0,0-6-1.41l-56.65,34.88a4.29,4.29,0,0,0,.23,7.45l50.74,27a4.33,4.33,0,0,0,5.86-1.78h0a4.34,4.34,0,0,0-1.77-5.87l-41.73-22.32a1.38,1.38,0,0,1-.08-2.4l47.95-29.63A4.33,4.33,0,0,0,249,98.29Z"/><path class="cls-1" d="M131.89,91.84a25.7,25.7,0,1,0-25.7,25.7A25.7,25.7,0,0,0,131.89,91.84ZM106.19,108A16.11,16.11,0,1,1,122.3,91.84,16.11,16.11,0,0,1,106.19,108Z"/><path class="cls-1" d="M231.23,169.35l-52.84-28.27a7.7,7.7,0,0,0-7.71.25l-48.62,30.28A.72.72,0,0,1,121,171c-.06-2.21-.06-5.28,0-6.8a1.53,1.53,0,0,1,.74-1.27L191.74,121a2.93,2.93,0,0,0-.05-5.05l-4.3-2.46v0h0l-24-12.86a73,73,0,0,0,.51-8.12l36.81,19.9a6.09,6.09,0,0,0,6.08-.18l27.1-16.75a4.46,4.46,0,0,0,1.77-5.68A4.34,4.34,0,0,0,229.42,88l-24.75,15.3a2.13,2.13,0,0,1-2.1.07L163,82.21a57.65,57.65,0,1,0-87.79,58.27c.81.69,1.52,1.23,1.78,1.47,1.24,1.11,2,1.73,2,1.73a61.56,61.56,0,0,1,14.25,23.53,13.66,13.66,0,0,1,.4,1.56,1.35,1.35,0,0,1-.62,1.45L35.88,204.6a4.33,4.33,0,0,0-1.24,6.3,4.45,4.45,0,0,0,5.87,1l53-31.87a.33.33,0,0,1,.5.3c-.15,2.64-.37,5.39-.56,8.09a1.8,1.8,0,0,1-.86,1.43l-47.5,29.35a4.47,4.47,0,0,0-1.77,5.69,4.33,4.33,0,0,0,6.17,1.78l43.4-26.81a.29.29,0,0,1,.45.23c.3,2.88,1,5.26,2.31,6.76,4.4,5,11.7,5.94,17.54,3.3a10,10,0,0,0,2.72-1.94,1,1,0,0,1,1.16-.15l81.12,40.65a4.46,4.46,0,0,0,5.77-1.48,4.34,4.34,0,0,0-1.72-6.19l-81.71-40.94a.69.69,0,0,1-.37-.77,45.25,45.25,0,0,0,.84-5.06.51.51,0,0,1,.74-.41l86.43,43.31a4.46,4.46,0,0,0,5.77-1.47,4.34,4.34,0,0,0-1.72-6.19l-90.71-45.45c0-.83,0,0-.09-.84l51.47-32.8a4.43,4.43,0,0,1,4.41-.14L227,176.9a4.46,4.46,0,0,0,5.81-1.32A4.32,4.32,0,0,0,231.23,169.35Zm-54.41-51.68a1.21,1.21,0,0,1,.05,2.12s-48.72,30.29-48.94,29.45c-.34-1.32,3.46-3.21,5.08-4.27,14.72-9.74,24.37-20.88,28.51-35.49Zm-71.19,83.48c-5.73,0-2.6-16.35-2.85-33.44s-22.29-34.15-22.29-34.15a49,49,0,1,1,74.69-41.72c0,20.29-11.1,37.26-26.88,45.15-8.05,4-17.43,20.28-17.59,30.36C110.28,195.37,113.19,201.15,105.63,201.15Z"/></svg>