<svg id="Capa_1" data-name="Capa 1" xmlns="http://www.w3.org/2000/svg" viewBox="0 0 283.46 283.46"><defs><style>.cls-1{fill:#1c1c1c;}</style></defs><path class="cls-1" d="M244.79,204.75a32,32,0,0,0-11.3-10.59h0a56.56,56.56,0,0,0-10.93-4.65l-41.27-12.63a6.06,6.06,0,0,0-7.55,4l-.88,2.89h0l-18.26,60.33a3.51,3.51,0,0,1-3.36,2.49h-.15a2.41,2.41,0,0,1-2.36-2.89l2.51-12.43-3.22-16a6.19,6.19,0,0,0-.81-3l6.93-6.93a4.27,4.27,0,0,0,0-6.06L144.84,190a4.27,4.27,0,0,0-6.06,0l-9.32,9.32a4.29,4.29,0,0,0,0,6.06l6.93,6.93a6.19,6.19,0,0,0-.81,3l-3,16,2.35,12.46a2.4,2.4,0,0,1-2.36,2.86h0a3.51,3.51,0,0,1-3.36-2.49l-18.26-60.33h0l-.88-2.89a6.06,6.06,0,0,0-7.56-4L60.15,189.66A51.1,51.1,0,0,0,50,194h0l-.13.08A32.89,32.89,0,0,0,35,212.89c-1.25,3.9-.62,33.75-.62,33.75v1.18a7.9,7.9,0,0,0,7.9,7.9H241.35a7.9,7.9,0,0,0,7.9-7.9v-1.18s0-16.92-.12-27.35a27.11,27.11,0,0,0-4.34-14.54ZM117.47,246.64h-71a3,3,0,0,1-3-3V219a18.52,18.52,0,0,1,3.33-10.6h0a18.61,18.61,0,0,1,6-5.48l.92-.53a50.52,50.52,0,0,1,10.71-4.62L100.31,187a2,2,0,0,1,2.53,1.35l16.76,55.37A2.24,2.24,0,0,1,117.47,246.64Zm122.7-2.73a2.73,2.73,0,0,1-2.73,2.73H165.9a1.9,1.9,0,0,1-1.81-2.45L180.81,189a2.64,2.64,0,0,1,3.28-1.75l37.73,11.42a20,20,0,0,1,4.25,1.85l4,2.3a20.14,20.14,0,0,1,6.49,6h0a20.2,20.2,0,0,1,3.62,11.54Z"/><path class="cls-1" d="M195.75,93.55a10.16,10.16,0,0,1-2.35-6.88c.85-19.74-.87-30.62-11.61-43.54-11.48-13.82-23-15.18-31.14-15.38s-6.53,4.68-19,4.77S112,34,99.74,44.11,89.23,71.56,89.23,71.56v14.6a10.25,10.25,0,0,1-2.59,7C85,94.94,83.2,98.34,82.9,103.87c-.49,9,2.72,12.95,8.08,16s4.67,11.58,13,24.33,15.77,17.52,22.58,20.34,26.77,1.66,35.05-1.94,25.21-30.34,26.18-35.63c1.59-8.66,8.42-5.56,11.45-16.58C201.75,101.41,198.32,96.68,195.75,93.55ZM105.22,51c10.65-8.8,16.91-10,27.74-10.06s9.38-4.32,16.48-4.15,17.09,1.36,27.06,13.36c8.88,10.68,10.66,19.76,10.17,35.37a1.81,1.81,0,0,1-2,1.75c-20-2.56-40.05-18.8-47.08-25a3.67,3.67,0,0,0-5.08.21C118.64,76.87,105.54,83.31,98.53,86a1.8,1.8,0,0,1-2.44-1.69v-9.4S94.56,59.83,105.22,51ZM191.7,108.6c-2.64,9.57-8.68,6.31-9.95,14.4C181,127.56,166.19,150.82,159,154s-24.52,4.14-30.44,1.69-12.35-6.59-19.62-17.67-6.68-18.52-11.33-21.14-7.44-6-7-13.87A18.28,18.28,0,0,1,92,96.65C109,94.19,126.5,79.72,132.83,74a3.66,3.66,0,0,1,4.91,0C157.89,92.07,183.57,96.49,191,97.42,192.3,100,193.1,103.51,191.7,108.6Z"/></svg>