<svg id="Capa_1" data-name="Capa 1" xmlns="http://www.w3.org/2000/svg" viewBox="0 0 283.46 283.46"><defs><style>.cls-1{fill:#1c1c1c;}</style></defs><path class="cls-1" d="M76.32,130.38,122.24,49.9A3.22,3.22,0,0,0,119.35,45l-.41,0a9.79,9.79,0,0,0-7.78,5l-45,80.68a2.84,2.84,0,0,0,2.43,4.33h0A9.19,9.19,0,0,0,76.32,130.38Z"/><path class="cls-1" d="M235.81,83.32a6.21,6.21,0,0,0-8.57-3.65c-14.41,6.88-50.13,26.14-75.75,58.45a176.52,176.52,0,0,0-33.71,68.51,1.44,1.44,0,0,1-2.61.45,107.08,107.08,0,0,0-16.8-19.51A77.92,77.92,0,0,0,61,168.09a6.22,6.22,0,0,0-7.28,4.63h0a6.2,6.2,0,0,0,4.58,7.48c6.81,1.65,18.72,6.19,33,18.63a71.51,71.51,0,0,1,21.35,34.44,7.13,7.13,0,0,0,6.88,5.23h0a7.15,7.15,0,0,0,7.06-6c2.53-16.26,11.51-61.56,35.67-88.5,30.6-34.11,58.69-47.94,70.16-52.54a6.19,6.19,0,0,0,3.55-7.7Z"/><path class="cls-1" d="M68.14,45C56.58,45,47.21,55.68,47.21,68.9s9.37,23.93,20.93,23.93S89.07,82.12,89.07,68.9,79.7,45,68.14,45Zm0,38.56c-5.11,0-9.26-6.57-9.26-14.69S63,54.16,68.14,54.16s9.25,6.57,9.25,14.68S73.25,83.53,68.14,83.53Z"/><path class="cls-1" d="M120,87.14c-11.56,0-20.93,10.71-20.93,23.93S108.48,135,120,135,141,124.29,141,111.07,131.6,87.14,120,87.14Zm0,38.62c-5.12,0-9.26-6.58-9.26-14.69s4.14-14.69,9.26-14.69,9.25,6.58,9.25,14.69S125.15,125.76,120,125.76Z"/></svg>