<svg id="Capa_1" data-name="Capa 1" xmlns="http://www.w3.org/2000/svg" viewBox="0 0 283.46 283.46"><defs><style>.cls-1{fill:#1c1c1c;}</style></defs><path class="cls-1" d="M232,98.28a6.1,6.1,0,0,0,1.78-1.21l13.55-13.55a7.73,7.73,0,0,0,.17-10.74,8.07,8.07,0,0,0-5.94-2.44H226.94s0,0,0,0H87.16l0-20.61a3.41,3.41,0,0,0-1-2.41L75.2,36.41a3.41,3.41,0,0,0-4.63,0L59.64,47.33a3.46,3.46,0,0,0-1,2.43v20.6H56.56l0,0H41.92a8.09,8.09,0,0,0-6,2.44,7.72,7.72,0,0,0,.18,10.74L49.7,97.07a5.64,5.64,0,0,0,.9.73,3.64,3.64,0,0,0,1.7.55l6.37.54V243.7A4.25,4.25,0,0,0,62.92,248h0a4.26,4.26,0,0,0,4.26-4.26V98.88h11.5V243.7A4.25,4.25,0,0,0,82.93,248h0a4.26,4.26,0,0,0,4.26-4.26V98.88h44v11.52H108.52a8.53,8.53,0,0,0-8.52,8.52V217h0a8.52,8.52,0,0,0,8.52,8.51H227.1a8.51,8.51,0,0,0,8.52-8.51h0V118.91a8.52,8.52,0,0,0-8.52-8.52H204V98.46Zm-164.83-45a3.44,3.44,0,0,1,1-2.42l3.23-3.23a2.11,2.11,0,0,1,3,0l3.27,3.27a3.42,3.42,0,0,1,1,2.42v17H67.16Zm1.48,37.09h-11a6.3,6.3,0,0,1-4.45-1.85l-9.27-9.27a.23.23,0,0,1,.16-.39h7.39v0H68.64Zm8.52,0V78.88H232v0h7.38a.23.23,0,0,1,.16.39l-9.26,9.27a6.34,6.34,0,0,1-4.46,1.85Zm145.6,28.54a4.34,4.34,0,0,1,4.34,4.35v89.38a4.34,4.34,0,0,1-4.34,4.35H112.87a4.35,4.35,0,0,1-4.35-4.35V123.26a4.35,4.35,0,0,1,4.35-4.35h18.34v6.43a4.26,4.26,0,0,0,8.52,0v-6.43h55.76v6.43a4.26,4.26,0,1,0,8.52,0v-6.43Zm-27.27-8.52H139.73V98.87h2l53.76-.35Z"/><path class="cls-1" d="M151.7,141.28h0a2.81,2.81,0,0,0-2.81-2.81h-12a2.81,2.81,0,0,0-2.82,2.81v21a2.81,2.81,0,0,0,2.82,2.81h0a2.81,2.81,0,0,0,2.81-2.81v-6.83a1.15,1.15,0,0,1,1.14-1.15h5.33a2.81,2.81,0,0,0,2.82-2.81h0a2.81,2.81,0,0,0-2.82-2.81h-5.33a1.14,1.14,0,0,1-1.14-1.14v-2.32a1.15,1.15,0,0,1,1.14-1.15h8A2.81,2.81,0,0,0,151.7,141.28Z"/><path class="cls-1" d="M177.68,198.21V176.94a2.81,2.81,0,0,0-2.81-2.82h0a2.81,2.81,0,0,0-2.81,2.82v24.87a2.81,2.81,0,0,0,2.81,2.81h12.21a2.8,2.8,0,0,0,2.81-2.81h0a2.81,2.81,0,0,0-2.81-2.81h-8.61A.79.79,0,0,1,177.68,198.21Z"/><path class="cls-1" d="M215.3,176.94h0a2.82,2.82,0,0,0-2.82-2.82H198.12a2.81,2.81,0,0,0-2.81,2.82v24.87a2.81,2.81,0,0,0,2.81,2.81h14.36a2.81,2.81,0,0,0,2.82-2.81h0a2.81,2.81,0,0,0-2.82-2.81H201.82a.87.87,0,0,1-.88-.88v-5.05a.87.87,0,0,1,.88-.88h8.84a2.82,2.82,0,0,0,2.82-2.82h0a2.81,2.81,0,0,0-2.82-2.81h-8.84a.87.87,0,0,1-.88-.88v-5.05a.87.87,0,0,1,.88-.88h10.66A2.81,2.81,0,0,0,215.3,176.94Z"/><path class="cls-1" d="M164.81,204h0a2.81,2.81,0,0,0,1.82-3.53l-7.25-22.69a5.24,5.24,0,0,0-5-3.65h-.27a5.22,5.22,0,0,0-5.24,3.78l-6.53,22.66a2.81,2.81,0,0,0,1.93,3.48h0a2.81,2.81,0,0,0,3.48-1.93l1.34-4.66a1.36,1.36,0,0,1,1.3-1h8.11a1.35,1.35,0,0,1,1.29.94l1.52,4.76A2.82,2.82,0,0,0,164.81,204Zm-13.72-13.65,2.69-9.31a.39.39,0,0,1,.74,0l3,9.31a.39.39,0,0,1-.37.51h-5.65A.4.4,0,0,1,151.09,190.34Z"/><path class="cls-1" d="M154.51,150.56v2.32a12.23,12.23,0,0,0,12.23,12.23h0a10.94,10.94,0,0,0,10.94-11v-4.61a11.08,11.08,0,0,0-11.08-11.08h0A12.09,12.09,0,0,0,154.51,150.56Zm11.59,9h0a6.78,6.78,0,0,1-6.78-6.78v-2A6.78,6.78,0,0,1,166.1,144h0a6.78,6.78,0,0,1,6.77,6.78v2A6.78,6.78,0,0,1,166.1,159.58Z"/><path class="cls-1" d="M202.93,160.17,199.39,154a1.2,1.2,0,0,1,.26-1.52,8.52,8.52,0,0,0,3-6.35c.2-4.16-1.06-5.16-2.79-6.34s-9.76-1.33-11.89-1.36h-2.81a2.81,2.81,0,0,0-2.81,2.81v20.86a2.81,2.81,0,0,0,2.81,2.82h0a2.81,2.81,0,0,0,2.81-2.82v-5.95a1.12,1.12,0,0,1,1.12-1.12h2.61c.35,0,.7,0,1,0a1.14,1.14,0,0,1,1.06.55l4.27,7.4a2.81,2.81,0,0,0,3.84,1h0A2.81,2.81,0,0,0,202.93,160.17Zm-12.85-9.92h-1.39a.73.73,0,0,1-.73-.72v-4.9a.73.73,0,0,1,.67-.73c2.52-.16,8.18-1,8.18,2.87C196.81,150.23,193.82,150.25,190.08,150.25Z"/><path class="cls-1" d="M134.64,183.25a2.68,2.68,0,0,0,3.74,1.32,2.64,2.64,0,0,0,1.21-3.39c-6.88-13.23-23.18-8.13-23,3.94a5.3,5.3,0,0,0,3.65,5.27c2.12.71,9.45,1.39,9.45,1.39a2.8,2.8,0,0,1,2.55,3.49c-1.25,5.17-8.74,6.68-12.07.32a2.81,2.81,0,0,0-3.14-1.48c-1.58.44-2.67,2.29-1.78,3.6,9,13.25,24.55,3.45,22.49-4.66-.9-3.55-2.71-4.07-3.05-4.29-.9-.58-7.84-1.76-10.47-2.32-1.58-.34-2.31-2.32-2.07-3.51C123.42,176.47,131.42,175.9,134.64,183.25Z"/></svg>